<?xml version="1.0" encoding="UTF-8" standalone="no"?>
<svg
   xmlns:osb="http://www.openswatchbook.org/uri/2009/osb"
   xmlns:dc="http://purl.org/dc/elements/1.1/"
   xmlns:cc="http://creativecommons.org/ns#"
   xmlns:rdf="http://www.w3.org/1999/02/22-rdf-syntax-ns#"
   xmlns:svg="http://www.w3.org/2000/svg"
   xmlns="http://www.w3.org/2000/svg"
   xmlns:sodipodi="http://sodipodi.sourceforge.net/DTD/sodipodi-0.dtd"
   xmlns:inkscape="http://www.inkscape.org/namespaces/inkscape"
   width="210mm"
   height="297mm"
   viewBox="0 0 210 297"
   version="1.1"
   id="svg3771"
   inkscape:version="1.0.1 (3bc2e813f5, 2020-09-07)"
   sodipodi:docname="AMS LOGO napis.svg"
   inkscape:export-filename="C:\Users\Marcin\Desktop\KLControl.png"
   inkscape:export-xdpi="96"
   inkscape:export-ydpi="96">
  <defs
     id="defs3765">
    <linearGradient
       id="linearGradient4791"
       osb:paint="solid">
      <stop
         style="stop-color:#000000;stop-opacity:1;"
         offset="0"
         id="stop4789" />
    </linearGradient>
    <inkscape:path-effect
       effect="bspline"
       id="path-effect3815"
       is_visible="true"
       weight="33.333333"
       steps="2"
       helper_size="0"
       apply_no_weight="true"
       apply_with_weight="true"
       only_selected="false" />
    <inkscape:path-effect
       effect="bspline"
       id="path-effect3811"
       is_visible="true"
       weight="33.333333"
       steps="2"
       helper_size="0"
       apply_no_weight="true"
       apply_with_weight="true"
       only_selected="false" />
    <inkscape:path-effect
       effect="bspline"
       id="path-effect3789"
       is_visible="true"
       weight="33.333333"
       steps="2"
       helper_size="0"
       apply_no_weight="true"
       apply_with_weight="true"
       only_selected="false" />
    <inkscape:path-effect
       effect="bspline"
       id="path-effect3785"
       is_visible="true"
       weight="33.333333"
       steps="2"
       helper_size="0"
       apply_no_weight="true"
       apply_with_weight="true"
       only_selected="false" />
    <inkscape:path-effect
       effect="bspline"
       id="path-effect3789-3"
       is_visible="true"
       weight="33.333333"
       steps="2"
       helper_size="0"
       apply_no_weight="true"
       apply_with_weight="true"
       only_selected="false" />
  </defs>
  <sodipodi:namedview
     id="base"
     pagecolor="#ffffff"
     bordercolor="#666666"
     borderopacity="1.0"
     inkscape:pageopacity="0.0"
     inkscape:pageshadow="2"
     inkscape:zoom="0.16000001"
     inkscape:cx="2365.2568"
     inkscape:cy="-437.50571"
     inkscape:document-units="mm"
     inkscape:current-layer="layer1"
     showgrid="false"
     showguides="true"
     inkscape:guide-bbox="true"
     inkscape:window-width="1350"
     inkscape:window-height="728"
     inkscape:window-x="51"
     inkscape:window-y="22"
     inkscape:window-maximized="0"
     inkscape:document-rotation="0">
    <sodipodi:guide
       position="-451.15096,-177.46697"
       orientation="1,0"
       id="guide3817"
       inkscape:locked="false" />
  </sodipodi:namedview>
  <metadata
     id="metadata3768">
    <rdf:RDF>
      <cc:Work
         rdf:about="">
        <dc:format>image/svg+xml</dc:format>
        <dc:type
           rdf:resource="http://purl.org/dc/dcmitype/StillImage" />
        <dc:title />
      </cc:Work>
    </rdf:RDF>
  </metadata>
  <g
     inkscape:label="Layer 1"
     inkscape:groupmode="layer"
     id="layer1"
     style="display:inline">
    <g
       aria-label="A"
       transform="matrix(0.35277777,0,0,0.35277777,1077.6507,-1841.6774)"
       id="text71"
       style="font-variant:normal;font-weight:normal;font-size:2498.66px;font-family:'Pirulen Rg';-inkscape-font-specification:PirulenRg-Regular;writing-mode:lr-tb;fill:#0000d4;fill-opacity:1;fill-rule:nonzero;stroke:none" />
    <g
       id="g73"
       transform="matrix(0.35277777,0,0,0.35277777,-532.67112,-2611.0778)" />
    <g
       aria-label="M"
       transform="matrix(0.35277777,0,0,0.35277777,1001.8442,-1841.6774)"
       id="text79"
       style="font-variant:normal;font-weight:normal;font-size:2498.66px;font-family:'Pirulen Rg';-inkscape-font-specification:PirulenRg-Regular;writing-mode:lr-tb;fill:#0000d4;fill-opacity:1;fill-rule:nonzero;stroke:none" />
    <g
       id="g81"
       transform="matrix(0.35277777,0,0,0.35277777,-1515.7768,-2611.0778)" />
    <g
       aria-label="S"
       transform="matrix(0.35277777,0,0,0.35277777,1109.3837,-1841.6774)"
       id="text87"
       style="font-variant:normal;font-weight:normal;font-size:2498.66px;font-family:'Pirulen Rg';-inkscape-font-specification:PirulenRg-Regular;writing-mode:lr-tb;fill:#0000d4;fill-opacity:1;fill-rule:nonzero;stroke:none" />
    <g
       id="g105"
       transform="matrix(0.35277777,0,0,0.35277777,-1461.2276,-2611.0778)" />
    <g
       id="g113"
       transform="matrix(0.35277777,0,0,0.35277777,-1461.2276,-2611.0778)" />
    <g
       id="g121"
       transform="matrix(0.35277777,0,0,0.35277777,-1461.2276,-2611.0778)" />
    <g
       id="g129"
       transform="matrix(0.35277777,0,0,0.35277777,-1461.2276,-2611.0778)" />
    <g
       id="g137"
       transform="matrix(0.35277777,0,0,0.35277777,-1461.2276,-2611.0778)" />
    <g
       id="g145"
       transform="matrix(0.35277777,0,0,0.35277777,-1461.2276,-2611.0778)" />
    <g
       id="g153"
       transform="matrix(0.35277777,0,0,0.35277777,-1461.2276,-2611.0778)" />
    <g
       id="g161"
       transform="matrix(0.35277777,0,0,0.35277777,-1461.2276,-2611.0778)" />
    <g
       id="g169"
       transform="matrix(0.35277777,0,0,0.35277777,-1461.2276,-2611.0778)" />
    <g
       id="g177"
       transform="matrix(0.35277777,0,0,0.35277777,-1461.2276,-2611.0778)" />
    <g
       id="g185"
       transform="matrix(0.35277777,0,0,0.35277777,-1461.2276,-2611.0778)" />
    <g
       id="g193"
       transform="matrix(0.35277777,0,0,0.35277777,-1461.2276,-2611.0778)" />
    <g
       id="g201"
       transform="matrix(0.35277777,0,0,0.35277777,-1461.2276,-2611.0778)" />
    <g
       id="g209"
       transform="matrix(0.35277777,0,0,0.35277777,-1461.2276,-2611.0778)" />
    <g
       id="g217"
       transform="matrix(0.35277777,0,0,0.35277777,-1461.2276,-2611.0778)" />
    <g
       id="g225"
       transform="matrix(0.35277777,0,0,0.35277777,-1461.2276,-2611.0778)" />
    <g
       id="g233"
       transform="matrix(0.35277777,0,0,0.35277777,-1461.2276,-2611.0778)" />
    <g
       id="g241"
       transform="matrix(0.35277777,0,0,0.35277777,-1461.2276,-2611.0778)" />
    <g
       id="g249"
       transform="matrix(0.35277777,0,0,0.35277777,-1461.2276,-2611.0778)" />
    <g
       id="g257"
       transform="matrix(0.35277777,0,0,0.35277777,-1461.2276,-2611.0778)" />
    <g
       id="g265"
       transform="matrix(0.35277777,0,0,0.35277777,-1461.2276,-2611.0778)" />
    <g
       id="g281"
       transform="matrix(0.35277777,0,0,0.35277777,-1461.2276,-2611.0778)" />
    <g
       aria-label="AMS PROJEKT"
       id="text1375"
       style="font-style:normal;font-weight:normal;font-size:21.2055px;line-height:1.25;font-family:sans-serif;fill:#0000ff;fill-opacity:1;stroke:none;stroke-width:0.530141"
       transform="matrix(1.2523765,0,0,1.2523765,13.853507,-16.740231)"
       inkscape:export-filename="C:\Users\FIRMA\Desktop\ZDJECIA-20210411T070023Z-001\logo2.png"
       inkscape:export-xdpi="96"
       inkscape:export-ydpi="96" />
    <path
       id="path67-7"
       style="fill:#0000d4;fill-opacity:1;fill-rule:nonzero;stroke:#0000ff;stroke-width:0.0560292;stroke-linecap:butt;stroke-linejoin:miter;stroke-miterlimit:4;stroke-dasharray:none;stroke-opacity:1"
       d="m 593.90147,-229.81972 -53.11858,79.90327 h 16.79992 l 41.88082,-64.35354 41.19768,64.35354 H 657.688 l -52.77837,-79.90327 z m 71.16311,0 v 79.90327 h 13.95937 v -55.84294 l 40.74681,55.84294 h 12.37177 l 40.63064,-55.95635 v 55.95635 h 13.96211 v -79.90327 h -12.93873 l -47.21622,65.26075 -47.44299,-65.26075 z m 159.91718,0 c -4.5399,0 -8.39724,0.49057 -11.57517,1.47422 -3.17795,0.90797 -5.79001,2.23425 -7.83294,3.97455 -1.96732,1.66463 -3.40403,3.67015 -4.31199,6.01578 -0.908,2.34561 -1.36083,4.9549 -1.36083,7.83017 v 4.6522 c 0,2.87528 0.45281,5.48733 1.36083,7.83295 0.90796,2.34562 2.34467,4.38886 4.31199,6.12917 2.04293,1.66464 4.65499,2.98815 7.83294,3.97179 3.17793,0.90798 7.03527,1.36081 11.57517,1.36081 h 46.9894 c 6.65858,0 9.98755,2.4611 9.98755,7.37936 v 10.10095 c 0,4.91826 -3.32897,7.37658 -9.98755,7.37658 h -69.46209 v 11.80474 h 69.46209 c 4.5399,0 8.39998,-0.4556 11.57793,-1.36357 3.17793,-0.98366 5.74948,-2.30715 7.71677,-3.9718 2.04299,-1.74028 3.51744,-3.78355 4.42541,-6.12916 0.90799,-2.34563 1.36359,-4.95491 1.36359,-7.83019 v -9.87416 c 0,-2.87528 -0.45564,-5.48733 -1.36359,-7.83295 -0.90797,-2.34562 -2.38242,-4.35114 -4.42541,-6.01576 -1.96729,-1.74031 -4.53884,-3.06382 -7.71677,-3.9718 -3.17795,-0.98366 -7.03803,-1.47422 -11.57793,-1.47422 h -46.9894 c -6.65852,0 -9.98756,-2.4611 -9.98756,-7.37933 v -4.87901 c 0,-4.91824 3.32904,-7.37658 9.98756,-7.37658 h 67.64489 v -11.80474 z"
       sodipodi:nodetypes="ccccccccccccccccccccccsccssssccsssssccsccssssccsssssccs" />
    <path
       id="path67-7-5"
       style="display:inline;fill:#000000;fill-opacity:1;fill-rule:nonzero;stroke:#0000ff;stroke-width:0.0202058;stroke-linecap:butt;stroke-linejoin:miter;stroke-miterlimit:4;stroke-dasharray:none;stroke-opacity:1"
       d="m 658.48769,-124.7084 v 28.815465 h 5.44411 v -10.641845 h 18.17264 c 1.63722,0 3.02928,-0.1643 4.17533,-0.49174 1.14609,-0.35473 2.07345,-0.83203 2.7829,-1.43235 0.73675,-0.6276 1.26947,-1.36445 1.59693,-2.21035 0.32744,-0.84591 0.49074,-1.78689 0.49074,-2.8238 v -4.25713 c 0,-1.03691 -0.1633,-1.9779 -0.49074,-2.8238 -0.32746,-0.8459 -0.86018,-1.56915 -1.59693,-2.16946 -0.70945,-0.62761 -1.63681,-1.1059 -2.7829,-1.43334 -1.14605,-0.35474 -2.53811,-0.53165 -4.17533,-0.53165 z m 36.46895,0 v 28.815465 h 5.44409 v -12.852205 h 15.18526 l 6.75375,12.852205 h 5.81219 l -6.7947,-12.933995 c 2.56502,-0.24558 4.39354,-0.98243 5.48505,-2.21036 1.09147,-1.2552 1.63681,-2.81057 1.63681,-4.66609 v -2.04677 c 0,-1.03691 -0.16325,-1.9779 -0.49073,-2.8238 -0.32745,-0.8459 -0.8602,-1.56915 -1.59696,-2.16946 -0.70944,-0.62761 -1.63682,-1.1059 -2.78289,-1.43334 -1.14605,-0.35474 -2.53812,-0.53165 -4.17536,-0.53165 z m 46.74269,0 c -1.63723,0 -3.02829,0.17692 -4.17434,0.53165 -1.14606,0.32744 -2.08804,0.80573 -2.82477,1.43334 -0.70949,0.60031 -1.22759,1.32356 -1.55505,2.16946 -0.32744,0.8459 -0.49075,1.78689 -0.49075,2.8238 v 14.89897 c 0,1.03691 0.16326,1.97789 0.49075,2.8238 0.32746,0.845896 0.84556,1.582755 1.55505,2.210357 0.73673,0.600317 1.67871,1.077609 2.82477,1.432343 1.14605,0.327444 2.53711,0.491745 4.17434,0.491745 h 19.03344 c 1.63721,0 3.0283,-0.164304 4.17435,-0.491745 1.14604,-0.354734 2.07443,-0.832026 2.78389,-1.432343 0.73672,-0.627602 1.26849,-1.364461 1.59592,-2.210357 0.32745,-0.84591 0.49076,-1.78689 0.49076,-2.8238 v -14.89897 c 0,-1.03691 -0.16325,-1.9779 -0.49076,-2.8238 -0.32743,-0.8459 -0.8592,-1.56915 -1.59592,-2.16946 -0.70946,-0.62761 -1.63785,-1.1059 -2.78389,-1.43334 -1.14605,-0.35474 -2.53714,-0.53165 -4.17435,-0.53165 z m 41.79034,0 v 22.67514 c 0,0.6276 -0.28675,1.10589 -0.85982,1.43333 -0.54569,0.30017 -1.44589,0.44986 -2.70108,0.44986 h -7.89984 v 4.257135 h 7.89984 c 1.58265,0 2.9475,-0.150689 4.09356,-0.450848 1.14604,-0.300156 2.07347,-0.723016 2.78293,-1.268765 0.73669,-0.54574 1.26841,-1.186337 1.59587,-1.923089 0.35474,-0.764043 0.53264,-1.597153 0.53264,-2.497623 v -22.67514 z m 10.64182,0 v 28.815465 h 29.63439 v -4.257135 h -24.19024 v -8.84144 h 22.96234 v -4.25613 h -22.96234 v -7.20362 h 24.19024 v -4.25714 z m 34.25962,0 v 28.815465 h 5.44305 v -12.852205 h 9.37308 l 10.88832,12.852205 h 6.26199 l -12.7705,-15.389725 12.81138,-13.42574 h -6.46653 l -10.84731,11.70613 h -9.25043 v -11.70613 z m 33.43966,0 v 4.25714 h 15.10337 v 24.558325 h 5.44414 v -24.558325 h 14.69449 v -4.25714 z m -197.89897,4.25714 h 18.17264 c 2.40124,0 3.60181,0.88655 3.60181,2.66021 v 4.33893 c 0,1.77366 -1.20057,2.66021 -3.60181,2.66021 H 663.9318 Z m 36.46893,0 h 19.03242 c 2.40131,0 3.60182,0.88655 3.60182,2.66021 v 2.12857 c 0,1.77366 -1.20051,2.66021 -3.60182,2.66021 h -19.03242 z m 41.2986,0 h 19.03344 c 2.40124,0 3.60181,0.88655 3.60181,2.66021 v 14.98077 c 0,1.77366 -1.20057,2.66021 -3.60181,2.66021 h -19.03344 c -2.40125,0 -3.60179,-0.88655 -3.60179,-2.66021 v -14.98077 c 0,-1.77366 1.20054,-2.66021 3.60179,-2.66021 z"
       sodipodi:nodetypes="ccccsccssssccsccccccccccsssccscsccssssccssccssscccsscscsccssccscccccccccccccccccccccccccccccccccccccccsssscccssssccsssssssss" />
    <rect
       style="fill:none;stroke-width:0.1"
       id="rect875"
       width="1920"
       height="1280"
       x="-125.11555"
       y="-231.52222" />
    <path
       id="path67-7-2"
       style="display:inline;fill:#0000d4;fill-opacity:1;fill-rule:nonzero;stroke:#0000ff;stroke-width:0.110186;stroke-linecap:butt;stroke-linejoin:miter;stroke-miterlimit:4;stroke-dasharray:none;stroke-opacity:1"
       d="m 358.42404,-25.626876 -10.63301,-0.0559 -1.06775,-0.300314 c -2.55732,-0.718961 -4.40044,-1.7738 -6.21034,-3.554521 -1.71884,-1.691471 -2.82854,-3.435897 -3.50529,-5.509456 -0.15843,-0.48489 -1.13607,-4.52592 -2.17286,-8.980008 -1.03671,-4.454354 -1.97449,-8.355487 -2.08375,-8.669445 -0.37816,-1.087426 -1.30205,-2.22692 -2.38218,-2.939183 -0.23529,-0.155299 -1.28162,-0.603844 -2.32484,-0.996689 -2.1836,-0.822343 -3.93988,-1.551753 -6.19178,-2.571584 -0.87345,-0.395552 -1.84025,-0.786536 -2.14889,-0.868574 -1.17079,-0.311918 -2.8716,-0.133998 -3.95226,0.413057 -0.25551,0.129334 -3.66295,2.223925 -7.57191,4.653968 -3.90867,2.430312 -7.47881,4.601815 -7.93334,4.825703 -1.98679,0.978921 -3.69661,1.356393 -6.11537,1.351314 -2.44326,-0.0045 -4.22449,-0.417427 -6.2803,-1.451987 -1.83184,-0.922174 -2.12867,-1.190963 -9.98607,-9.048402 -8.14513,-8.145066 -8.19594,-8.202369 -9.24996,-10.416312 -1.77592,-3.730045 -1.72875,-8.415763 0.12137,-12.080628 0.18939,-0.375921 2.38402,-3.962253 4.87652,-7.969673 2.79632,-4.496592 4.63282,-7.560365 4.79669,-8.002173 0.35893,-0.969228 0.4412,-2.345807 0.19672,-3.298417 -0.1,-0.38986 -0.53434,-1.48072 -0.96568,-2.42411 -0.87023,-1.90451 -1.9406,-4.50739 -2.67655,-6.50821 -0.56291,-1.53027 -1.0529,-2.32114 -1.91723,-3.09339 -1.11179,-0.99394 -1.25927,-1.03893 -10.45532,-3.18427 -4.65946,-1.08706 -8.84039,-2.10882 -9.29083,-2.27049 -1.99386,-0.71667 -3.561,-1.72086 -5.12652,-3.28661 -2.05389,-2.05393 -3.23164,-4.25528 -3.86646,-7.22751 -0.18573,-0.86994 -0.20019,-1.7321 -0.20019,-12.12016 0,-8.65687 0.0338,-11.39558 0.14398,-12.12045 0.61378,-3.99131 2.41495,-7.57434 5.20618,-10.35555 1.96024,-1.95357 4.46054,-3.51773 6.94363,-4.34407 0.63176,-0.21044 4.69403,-1.20844 9.02709,-2.21801 4.51621,-1.05235 7.95859,-1.90728 8.06675,-2.00303 0.10345,-0.0921 0.27184,-0.42191 0.37384,-0.733 0.3286,-1.00069 1.88031,-4.81166 2.67169,-6.5618 0.57986,-1.2827 0.74613,-1.75629 0.67883,-1.93359 -0.0491,-0.12889 -1.98577,-3.28173 -4.30389,-7.00577 -2.3181,-3.7241 -4.47777,-7.31629 -4.79961,-7.9831 -0.70874,-1.46889 -1.16564,-2.83797 -1.49796,-4.48934 -0.35844,-1.78287 -0.36084,-5.09526 -0.004,-6.8658 0.3474,-1.7259 0.81554,-3.081 1.6338,-4.73182 1.28355,-2.58937 1.48805,-2.82481 9.07664,-10.4484 3.79001,-3.80719 7.28752,-7.25789 7.77211,-7.66823 2.62438,-2.22043 5.85973,-3.69097 9.25582,-4.20595 1.11693,-0.16952 4.02574,-0.16638 5.17873,0.006 2.0531,0.30619 4.20354,0.99903 5.89472,1.89887 0.45468,0.24191 3.8215,2.3017 7.48202,4.57758 3.66032,2.2756 6.78416,4.18584 6.94154,4.24474 0.24392,0.0912 0.55531,-0.0149 2.10447,-0.71599 1.66453,-0.75373 4.23558,-1.80608 6.25796,-2.56168 0.47103,-0.17599 0.86455,-0.39823 0.95011,-0.53654 0.0802,-0.13001 0.97679,-3.80642 1.99204,-8.16977 1.01529,-4.36342 1.99339,-8.35501 2.17339,-8.86998 2.14724,-6.13906 7.31654,-10.61554 13.7677,-11.92269 l 1.24836,-0.25288 h 10.9634 c 12.3274,0 11.81475,-0.0299 14.48943,0.84227 5.40801,1.76323 9.69207,5.95092 11.54843,11.28892 0.20833,0.60006 1.21058,4.66127 2.22632,9.0247 1.01579,4.36315 1.89598,7.99522 1.95545,8.07107 0.0865,0.10978 11.72916,0.1375 57.55303,0.13693 l 57.44461,-0.001 0.43159,-0.63291 c 0.2372,-0.34815 0.74725,-0.93319 1.13307,-1.29993 3.26637,-3.10573 8.45807,-2.90658 11.52658,0.44241 1.54325,1.68388 2.30549,4.09298 2.02404,6.39523 -0.23719,1.93683 -0.89009,3.23971 -2.38162,4.75091 -0.85431,0.86588 -1.13629,1.07439 -2.03827,1.50843 -1.19096,0.57284 -2.35097,0.84735 -3.58088,0.84735 -2.7027,0 -5.37545,-1.42371 -6.74801,-3.59467 l -0.30408,-0.48109 -58.50855,-0.0279 -58.50853,-0.0284 -0.84736,-0.36561 c -2.06441,-0.89068 -3.76467,-2.58669 -4.59647,-4.58489 -0.21407,-0.51422 -0.96597,-3.51738 -2.10126,-8.39261 -0.97242,-4.17558 -1.89076,-8.02608 -2.04099,-8.55698 -1.01225,-3.57607 -3.93928,-6.33337 -7.65793,-7.21352 -0.76042,-0.18002 -1.64008,-0.1957 -11.0186,-0.1957 -11.27852,0 -10.58236,-0.0399 -12.57093,0.72652 -2.45556,0.9469 -4.70751,3.20527 -5.70313,5.71928 -0.19061,0.48143 -1.1142,4.20196 -2.2121,8.91036 -1.03679,4.44629 -2.01433,8.41307 -2.17256,8.81508 -0.40944,1.03995 -1.36176,2.43032 -2.16286,3.15739 -0.98407,0.89357 -1.8768,1.38334 -3.90648,2.14293 -2.0709,0.77495 -3.99236,1.57518 -6.08201,2.53309 -1.86854,0.85624 -2.87381,1.10436 -4.48105,1.1054 -1.32629,0.001 -2.38355,-0.20881 -3.46091,-0.68617 -0.3334,-0.1477 -3.77945,-2.24246 -7.65801,-4.65535 -3.87852,-2.41282 -7.31204,-4.50277 -7.62979,-4.64433 -3.37265,-1.50251 -7.09214,-1.18365 -10.16501,0.87132 -0.2728,0.18212 -3.63559,3.46062 -7.47265,7.28536 -5.66679,5.64799 -7.09696,7.13252 -7.61794,7.90636 -1.36932,2.03451 -1.9971,4.65081 -1.66343,6.93282 0.15559,1.06262 0.56856,2.4452 0.9689,3.24302 0.15192,0.30321 2.17718,3.60996 4.49992,7.34826 2.32291,3.73864 4.37389,7.09539 4.5577,7.45972 0.61319,1.21464 0.82714,2.20781 0.82142,3.81345 -0.004,1.76915 -0.13807,2.28985 -1.14198,4.50952 -1.02056,2.25645 -1.79711,4.12736 -2.45049,5.90306 -0.30121,0.81828 -0.71656,1.80981 -0.92322,2.20376 -1.04591,1.9931 -2.91978,3.53977 -5.05947,4.17558 -0.42433,0.12591 -4.27842,1.04621 -8.56508,2.04449 -5.20189,1.21168 -8.07056,1.93063 -8.62651,2.16207 -2.69272,1.12097 -4.83536,3.39574 -5.80456,6.16249 -0.51746,1.47667 -0.5533,1.90156 -0.5944,7.05178 l -0.0385,4.90313 c 0.0664,3.69208 0.0827,4.17806 0.024,8.35177 0.0589,3.29972 0.12993,3.75607 0.77332,4.97175 0.19489,0.36865 0.65767,0.97382 1.02765,1.3449 1.2116,1.2154 1.21893,1.21781 10.78639,3.44774 4.66636,1.08762 8.85619,2.11035 9.31067,2.27291 2.70127,0.96466 5.15044,2.88881 6.76599,5.31569 0.82475,1.23854 1.1568,1.93145 1.91912,4.00281 0.61806,1.67988 1.69433,4.26306 2.5979,6.23592 1.15383,2.51862 1.4999,3.99344 1.50742,6.422151 0.008,2.38217 -0.47586,4.447053 -1.48316,6.336568 -0.25883,0.484602 -2.48788,4.126597 -4.95434,8.093108 -4.67951,7.525359 -4.8431,7.829222 -4.99355,9.265792 -0.0975,0.934486 0.14398,2.092371 0.64989,3.118612 0.43445,0.880755 0.58385,1.039485 7.56346,8.019412 6.82095,6.821768 7.15513,7.137946 7.9468,7.522473 1.19956,0.582548 2.3359,0.789686 3.45895,0.630976 0.52257,-0.07388 1.16978,-0.258318 1.5793,-0.449949 0.38202,-0.178596 3.8791,-2.304879 7.7721,-4.725007 3.89304,-2.420393 7.43636,-4.582204 7.87412,-4.804406 1.9048,-0.966609 3.8352,-1.409192 6.14579,-1.409192 2.53795,0 3.8742,0.327712 6.83144,1.67501 2.03719,0.928075 4.45437,1.922571 6.44582,2.652046 2.09686,0.768212 3.31154,1.464345 4.8531,2.781229 1.53774,1.313622 2.97062,3.349777 3.72624,5.29493 0.31995,0.823383 0.96299,3.383408 2.42679,9.659767 1.70409,7.306307 2.0499,8.656846 2.39346,9.354044 0.72791,1.476946 2.12902,2.601132 3.79461,3.044337 0.50399,0.134222 2.218,0.159962 10.64378,0.161062 9.87093,0.0013 10.05573,-0.0022 10.79818,-0.228481 1.68118,-0.512022 3.04221,-1.696285 3.73697,-3.251011 0.13746,-0.308588 1.12263,-4.300192 2.1884,-8.869994 1.06585,-4.569714 2.0668,-8.705494 2.22477,-9.190429 0.89576,-2.752143 2.94351,-5.436159 5.3719,-7.041242 1.22085,-0.80699 1.89301,-1.126406 4.18232,-1.986906 1.96292,-0.738105 4.10298,-1.63388 6.43857,-2.695108 2.23338,-1.015216 3.76471,-1.356415 6.08712,-1.356415 2.27106,0 3.98399,0.37157 5.89472,1.278371 0.54542,0.258605 4.16509,2.446239 8.04366,4.860687 3.87854,2.414692 7.33269,4.532134 7.67554,4.705107 0.65411,0.329864 1.86117,0.633927 2.51666,0.633927 0.66923,0 1.9016,-0.312381 2.64458,-0.67051 0.64816,-0.312693 1.38816,-1.01466 7.80812,-7.410729 4.48181,-4.464846 7.25037,-7.305841 7.52187,-7.718586 1.07852,-1.639249 1.21814,-3.893014 0.34884,-5.620781 -0.42968,-0.853533 -8.17414,-13.289339 -8.53256,-13.701064 -0.1733,-0.199225 -0.45178,-0.620795 -0.6181,-0.936638 -0.27424,-0.520963 -0.30263,-0.682424 -0.30263,-1.73127 0,-1.107039 0.0163,-1.186949 0.37432,-1.847764 0.44793,-0.826401 1.03272,-1.380441 1.87089,-1.773554 l 0.61918,-0.290266 31.80531,-0.02839 31.80497,-0.02839 0.34691,-0.540507 c 0.56915,-0.886923 1.93042,-2.10156 2.94889,-2.63086 1.24716,-0.64793 2.31698,-0.90383 3.77782,-0.90383 2.32032,0 4.01743,0.70661 5.68816,2.36791 0.85728,0.852712 1.08036,1.154355 1.51676,2.051727 0.61375,1.261754 0.83497,2.22153 0.83497,3.624024 0,1.415849 -0.2242,2.389936 -0.83625,3.636072 -0.43496,0.885234 -0.66899,1.200656 -1.51741,2.044962 -1.14949,1.143887 -2.23632,1.780254 -3.67105,2.149208 -1.17181,0.301624 -2.87061,0.302088 -4.03003,0.0013 -1.92287,-0.498313 -3.81878,-1.865245 -4.80869,-3.46709 l -0.24674,-0.398483 h -27.66452 c -26.33677,0 -27.65663,0.009 -27.49919,0.193014 0.16169,0.188351 4.18553,6.647843 4.89077,7.850629 0.57024,0.97271 1.14688,2.477721 1.45331,3.792163 0.24588,1.054548 0.28436,1.469713 0.28292,3.039259 -0.001,1.981802 -0.13217,2.826949 -0.7028,4.542381 -0.39358,1.184196 -0.82852,2.064064 -1.62094,3.280827 -0.51097,0.784384 -1.83913,2.165603 -8.16928,8.495739 -6.33009,6.330355 -7.71129,7.658531 -8.49568,8.169244 -2.57024,1.674235 -4.77126,2.330769 -7.82321,2.334273 -2.40205,0.0022 -4.22725,-0.410882 -6.17054,-1.397857 -0.51505,-0.261845 -4.15244,-2.47772 -8.08322,-4.924423 -3.93065,-2.446771 -7.45135,-4.571666 -7.82319,-4.722389 -0.80881,-0.327467 -2.35394,-0.44722 -3.26099,-0.252928 -0.32475,0.06967 -1.51224,0.542461 -2.63892,1.05049 -2.26214,1.020385 -3.49858,1.529989 -6.02843,2.484929 -1.9546,0.737841 -2.55871,1.09253 -3.39151,1.992296 -1.07443,1.16028 -1.08679,1.200924 -3.26344,10.515698 -1.09031,4.666394 -2.06383,8.732161 -2.16308,9.035181 -1.66671,5.076723 -6.45523,8.914075 -11.71847,9.39118 -0.51528,0.04659 -5.72146,0.05967 -11.56965,0.02884 v 6.86e-4 z m -3.03019,-50.319889 c -8.64041,-0.567198 -16.63099,-2.72224 -24.29603,-6.552093 -6.17426,-3.08527 -10.98627,-6.513116 -15.90828,-11.332341 -3.17007,-3.103793 -5.53012,-5.87639 -7.85958,-9.232661 -6.27388,-9.03869 -10.01808,-19.43137 -11.00508,-30.54437 -0.22468,-2.52938 -0.25692,-7.98145 -0.0617,-10.35742 1.12909,-13.71829 6.25961,-26.04993 15.17339,-36.47141 2.55551,-2.98738 6.88366,-7.01603 10.11724,-9.417 12.56254,-9.32745 27.88076,-13.62757 43.59124,-12.23755 13.71015,1.21327 26.89107,7.05447 37.01008,16.40156 l 1.03496,0.95577 h 60.77199 l 0.49543,-0.68857 c 1.21651,-1.69119 3.06853,-2.90528 5.00809,-3.28304 1.02466,-0.19996 3.19554,-0.081 4.10211,0.22435 2.64718,0.89227 4.66748,3.05056 5.36359,5.73065 0.25067,0.96569 0.25067,3.00075 0,3.96678 -0.74939,2.88455 -3.0124,5.11895 -5.93211,5.85733 -0.74755,0.1889 -1.13018,0.21905 -2.23285,0.17599 -1.53996,-0.0605 -2.62998,-0.3595 -3.80992,-1.04484 -0.8029,-0.46636 -2.36436,-1.96859 -2.69675,-2.59426 l -0.21741,-0.40955 -63.69292,-0.0565 -0.53703,-0.25 c -0.35172,-0.16358 -1.03604,-0.73513 -1.98339,-1.65674 -6.52115,-6.34385 -14.43696,-10.96959 -22.96229,-13.41906 -11.97728,-3.44098 -24.29632,-2.86215 -35.83558,1.68368 -5.40449,2.12895 -10.56436,5.20754 -15.21164,9.07554 -1.70303,1.41751 -5.34932,5.04931 -6.66559,6.63903 -7.67852,9.27303 -11.88479,19.48165 -12.94789,31.42396 -0.16699,1.87256 -0.16841,6.53088 -0.002,8.4841 0.36856,4.3535 1.24176,8.76693 2.50725,12.67159 6.63099,20.45761 24.45216,35.256221 45.70869,37.956143 3.959,0.502926 8.78764,0.568859 12.50608,0.170817 10.0144,-1.071498 19.33046,-4.695455 27.28822,-10.614974 11.7147,-8.713906 19.45423,-21.447556 21.74488,-35.776096 0.37674,-2.35605 0.56157,-4.35453 0.64962,-7.01954 l 0.0861,-2.61169 0.34787,-0.7071 c 0.41425,-0.84142 1.11444,-1.52324 1.98168,-1.92987 l 0.62539,-0.29301 35.0388,-0.0313 35.03911,-0.0308 0.44073,-0.66784 c 0.87365,-1.32389 2.41092,-2.46427 4.07673,-3.02451 1.1534,-0.38775 3.00866,-0.48543 4.24237,-0.22334 1.63793,0.34819 3.43755,1.44037 4.51035,2.7376 0.65679,0.79383 1.34002,2.13357 1.61636,3.16842 0.25647,0.9628 0.26128,2.99165 0.008,3.96678 -0.7367,2.84259 -3.00454,5.13755 -5.77799,5.84686 -1.17509,0.3008 -3.10034,0.29412 -4.21297,-0.0145 -1.7671,-0.48971 -3.53599,-1.74147 -4.53053,-3.20582 l -0.43737,-0.64386 -65.16475,0.0554 -0.13665,1.59784 c -1.11238,13.00892 -6.23729,25.23137 -14.87668,35.479835 -1.38008,1.637121 -5.45021,5.704527 -7.0926,7.088054 -3.90552,3.289235 -7.70729,5.836392 -12.039,8.065221 -7.85143,4.040232 -15.86845,6.269239 -24.75079,6.881713 -1.45357,0.10005 -6.87126,0.124243 -8.20885,0.03617 z"
       sodipodi:nodetypes="ccscsscssscsccscsssccscscscsssccssccsssscssscscssscssscscsscscccccccccsscccssscsscssscsccssscccsssccsscscssccccssccscccssscsssscsssssssssccscsccsccsscccscsscscccscscssssccscscssccsccccscscscscscccccscsccccsccsccscscssccsscssccccsccssccccccssccccccsccssccscc" />
  </g>
</svg>
